<svg viewBox="0 0 800 500" xmlns="http://www.w3.org/2000/svg" role="img" aria-label="Ilustrasi ruangan">
  <rect width="800" height="500" fill="#0c1a2e"/>
  <rect x="120" y="0" width="560" height="330" fill="#1e4a82"/>
  <polygon points="0,0 120,0 120,330 0,500" fill="#173763"/>
  <polygon points="680,0 800,0 800,500 680,330" fill="#173763"/>
  <polygon points="0,500 800,500 680,330 120,330" fill="#0f2340"/>
  <line x1="0" y1="500" x2="120" y2="330" stroke="#0c1a2e" stroke-width="2" stroke-opacity="0.5"/>
  <line x1="800" y1="500" x2="680" y2="330" stroke="#0c1a2e" stroke-width="2" stroke-opacity="0.5"/>
  
  <g transform="translate(560,90)">
    <rect x="-60" y="-45" width="120" height="90" rx="4" fill="#2a4a75" stroke="#4d6fa0" stroke-width="4"/>
    <rect x="-50" y="-35" width="100" height="70" fill="#8fb3e8" fill-opacity="0.85"/>
    <line x1="0" y1="-35" x2="0" y2="35" stroke="#2a4a75" stroke-width="4"/>
    <line x1="-50" y1="0" x2="50" y2="0" stroke="#2a4a75" stroke-width="4"/>
  </g>
  <polygon points="20,330 95,330 90,470 25,485" fill="#0c1a2e" fill-opacity="0.6"/>
  <circle cx="82" cy="410" r="4" fill="#c7d4e6"/>
  
  <line x1="220" y1="0" x2="220" y2="30" stroke="#4d6fa0" stroke-width="3"/>
  <ellipse cx="220" cy="40" rx="24" ry="9" fill="#f2e6c9" fill-opacity="0.85"/>
  <rect x="220" y="230" width="360" height="90" rx="4" fill="#c99a44" fill-opacity="0.55" stroke="#c99a44" stroke-width="3"/>
  <circle cx="330" cy="255" r="9" fill="#f2e6c9" fill-opacity="0.9"/>
  <circle cx="470" cy="255" r="9" fill="#f2e6c9" fill-opacity="0.9"/>
  <rect x="179" y="350" width="22" height="14" rx="4" fill="#c7d4e6" fill-opacity="0.85"/><rect x="239" y="350" width="22" height="14" rx="4" fill="#c7d4e6" fill-opacity="0.85"/><rect x="299" y="350" width="22" height="14" rx="4" fill="#c7d4e6" fill-opacity="0.85"/><rect x="359" y="350" width="22" height="14" rx="4" fill="#c7d4e6" fill-opacity="0.85"/><rect x="419" y="350" width="22" height="14" rx="4" fill="#c7d4e6" fill-opacity="0.85"/><rect x="479" y="350" width="22" height="14" rx="4" fill="#c7d4e6" fill-opacity="0.85"/><rect x="539" y="350" width="22" height="14" rx="4" fill="#c7d4e6" fill-opacity="0.85"/><rect x="599" y="350" width="22" height="14" rx="4" fill="#c7d4e6" fill-opacity="0.85"/><rect x="200" y="392" width="22" height="14" rx="4" fill="#c7d4e6" fill-opacity="0.70"/><rect x="263" y="392" width="22" height="14" rx="4" fill="#c7d4e6" fill-opacity="0.70"/><rect x="326" y="392" width="22" height="14" rx="4" fill="#c7d4e6" fill-opacity="0.70"/><rect x="389" y="392" width="22" height="14" rx="4" fill="#c7d4e6" fill-opacity="0.70"/><rect x="452" y="392" width="22" height="14" rx="4" fill="#c7d4e6" fill-opacity="0.70"/><rect x="515" y="392" width="22" height="14" rx="4" fill="#c7d4e6" fill-opacity="0.70"/><rect x="578" y="392" width="22" height="14" rx="4" fill="#c7d4e6" fill-opacity="0.70"/><rect x="222" y="434" width="22" height="14" rx="4" fill="#c7d4e6" fill-opacity="0.55"/><rect x="289" y="434" width="22" height="14" rx="4" fill="#c7d4e6" fill-opacity="0.55"/><rect x="356" y="434" width="22" height="14" rx="4" fill="#c7d4e6" fill-opacity="0.55"/><rect x="422" y="434" width="22" height="14" rx="4" fill="#c7d4e6" fill-opacity="0.55"/><rect x="489" y="434" width="22" height="14" rx="4" fill="#c7d4e6" fill-opacity="0.55"/><rect x="556" y="434" width="22" height="14" rx="4" fill="#c7d4e6" fill-opacity="0.55"/>
  <g transform="translate(32,28)">
    <rect width="222" height="32" rx="16" fill="#0c1a2e" fill-opacity="0.55" stroke="#ffffff" stroke-opacity="0.25"/>
    <text x="111" y="21" text-anchor="middle" font-family="Arial, sans-serif" font-size="13" font-weight="700" fill="#ffffff" letter-spacing="0.2">Aula — Kegiatan Komersil</text>
  </g>
  <g transform="translate(630,28)">
    <rect width="138" height="32" rx="16" fill="#0c1a2e" fill-opacity="0.55" stroke="#ffffff" stroke-opacity="0.25"/>
    <text x="69" y="21" text-anchor="middle" font-family="Arial, sans-serif" font-size="13" font-weight="700" fill="#ffffff" letter-spacing="0.2">Aula Serbaguna</text>
  </g></svg>